<svg xmlns="http://www.w3.org/2000/svg" width="16px" height="16px" viewBox="0 0 2048 2048">
	<circle fill-opacity="0.6" r="1024" cx="1024" cy="1024" fill="#40b6e0"></circle>
	<g transform="scale(0.34)"><path fill-opacity="0.7" transform="translate(412.75, 2580) rotate(180) scale(-1, 1)" fill="#231f20" d="M614 1438v-318h418v-143h-418v-608q0 -124 47 -173t164 -49h207v-147h-225q-207 0 -292 83t-85 286v608h-299v143h299v318h184z"></path><path fill-opacity="0.7" transform="translate(1645.75, 2580) rotate(180) scale(-1, 1)" fill="#231f20" d="M1118 1120l-401 -536l440 -584h-213l-328 449l-327 -449h-213l440 584l-401 536h204l297 -405l295 405h207z"></path><path fill-opacity="0.7" transform="translate(2878.75, 2580) rotate(180) scale(-1, 1)" fill="#231f20" d="M614 1438v-318h418v-143h-418v-608q0 -124 47 -173t164 -49h207v-147h-225q-207 0 -292 83t-85 286v608h-299v143h299v318h184z"></path><path fill-opacity="0.7" transform="translate(4111.75, 2580) rotate(180) scale(-1, 1)" fill="#231f20" d="M1061 57q-74 -43 -152.5 -64.5t-160.5 -21.5q-260 0 -406.5 156t-146.5 432t146.5 432t406.5 156q81 0 158 -21t155 -65v-193q-73 65 -146.5 94t-166.5 29q-173 0 -266 -112t-93 -320q0 -207 93.5 -319.5t265.5 -112.5q96 0 172 29.5t141 91.5v-191z"></path></g>
</svg>